<?xml version="1.0" encoding="UTF-8"?>
<!DOCTYPE svg PUBLIC "-//W3C//DTD SVG 1.1//EN" "http://www.w3.org/Graphics/SVG/1.1/DTD/svg11.dtd">
<!-- Creator: CorelDRAW X7 -->
<svg xmlns="http://www.w3.org/2000/svg" xml:space="preserve" width="210mm" height="297mm" version="1.1" style="shape-rendering:geometricPrecision; text-rendering:geometricPrecision; image-rendering:optimizeQuality; fill-rule:evenodd; clip-rule:evenodd"
viewBox="0 0 21000 29700"
 xmlns:xlink="http://www.w3.org/1999/xlink">
 <defs>
  <style type="text/css">
   <![CDATA[
    .str0 {stroke:#27376C;stroke-width:300;stroke-linecap:round;stroke-linejoin:round}
    .fil0 {fill:none}
    .fil1 {fill:white}
   ]]>
  </style>
 </defs>
 <g id="Layer_x0020_1">
  <metadata id="CorelCorpID_0Corel-Layer"/>
  <g>
   <path class="fil0 str0" d="M10044 16050l-4763 18 1 1628 4770 -4c154,15 42,-3 102,57l13 387c-283,60 -4292,29 -4892,18l1 1292 4903 -2c32,157 38,342 -7,475l-4900 13 4 1708c698,-13 4574,48 4881,-25l1335 -1293c114,-109 202,-118 214,-309l-5 -13897 -1845 -1639 188 11573z"/>
   <path id="1" class="fil1" d="M10044 16050l-4763 18 1 1628 4770 -4c154,15 42,-3 102,57l13 387c-283,60 -4292,29 -4892,18l1 1292 4903 -2c32,157 38,342 -7,475l-4900 13 4 1708c698,-13 4574,48 4881,-25l1335 -1293c114,-109 202,-118 214,-309l-5 -13897 -1845 -1639 188 11573z"/>
  </g>
  <g>
   <path class="fil0 str0" d="M12157 19671c93,-46 83,-40 161,-113l364 -374c127,-119 974,-909 1011,-996 42,-99 39,-9036 21,-10103 -3,-216 -51,-205 -180,-304 -111,-87 -166,-165 -272,-257 -183,-159 -357,-323 -545,-478 -131,-108 -417,-414 -561,-492l1 13117z"/>
   <path id="1" class="fil1" d="M12157 19671c93,-46 83,-40 161,-113l364 -374c127,-119 974,-909 1011,-996 42,-99 39,-9036 21,-10103 -3,-216 -51,-205 -180,-304 -111,-87 -166,-165 -272,-257 -183,-159 -357,-323 -545,-478 -131,-108 -417,-414 -561,-492l1 13117z"/>
  </g>
  <g>
   <path class="fil0 str0" d="M14166 17727c134,-54 383,-357 617,-570l899 -864c146,-139 97,-265 96,-515l1 -5926c-19,-75 -654,-633 -786,-744 -181,-153 -637,-625 -828,-724l1 9343z"/>
   <path id="1" class="fil1" d="M14166 17727c134,-54 383,-357 617,-570l899 -864c146,-139 97,-265 96,-515l1 -5926c-19,-75 -654,-633 -786,-744 -181,-153 -637,-625 -828,-724l1 9343z"/>
  </g>
 </g>
</svg>
