<?xml version="1.0" encoding="utf-8"?>
<svg viewBox="0 0 500 500" xmlns="http://www.w3.org/2000/svg">
  <g transform="matrix(0.011449001729488373, 0, 0, -0.011449001729488373, 53.866676330566406, 469.93212890624994)" fill="#435ebe" stroke="none" style="">
    <rect x="732.581" y="-38495.422" width="33405.88" height="30858.759" style="fill: rgb(216, 216, 216); stroke: rgb(0, 0, 0); paint-order: fill;" transform="matrix(1, 0, 0, -1, 0, 0)"/>
    <path d="M12003 38813 l-11553 -3 0 -328 c0 -270 59 -31022 60 -31029 0 -6 33823 0 33905 6 l90 6 3 15661 2 15661 -82 14 c-94 15 -2215 16 -22425 12z m4902 -725 c155 -115 455 -408 914 -893 151 -160 527 -542 836 -850 565 -562 716 -725 826 -888 l59 -88 0 -12241 0 -12240 -30 -57 c-76 -141 -290 -374 -884 -961 -1240 -1225 -1603 -1595 -1715 -1752 l-34 -48 -4144 0 -4143 0 1 143 c3 663 26 2578 32 2583 4 4 1846 11 4094 17 2249 5 4089 10 4091 12 1 1 -1 159 -4 350 l-7 348 -4104 -6 -4103 -7 6 1357 c3 747 7 1364 10 1370 3 10 832 13 4105 13 l4101 0 -6 23 c-3 12 -6 172 -6 355 l0 332 -4105 0 -4105 0 0 1365 0 1365 4110 0 4110 0 0 10230 c0 9789 1 10230 18 10221 9 -5 44 -29 77 -53z m4926 -4958 c486 -492 944 -956 1016 -1030 l133 -135 0 -5535 c0 -3044 3 -7029 7 -8855 l6 -3320 -1169 -1150 c-643 -632 -1260 -1239 -1372 -1350 l-203 -200 6 8720 c3 4796 8 8828 10 8960 2 132 4 1417 5 2855 l0 2615 338 -340 c186 -187 736 -743 1223 -1235z m1989 -1977 c58 -47 296 -280 530 -517 557 -564 953 -960 1462 -1461 228 -225 462 -461 518 -524 l103 -114 -6 -690 c-4 -380 -7 -2822 -7 -5428 l0 -4738 -1357 -1333 c-746 -733 -1361 -1335 -1366 -1337 -7 -3 -8 1076 -4 3335 4 1837 7 5489 7 8117 0 2627 3 4777 8 4777 4 0 54 -39 112 -87z"/>
    <path d="M20112 5088 c-112 -111 -137 -163 -137 -283 0 -82 3 -97 32 -156 94 -191 325 -275 518 -190 54 24 145 108 179 165 34 58 56 140 56 206 0 207 -189 340 -484 340 l-82 0 -82 -82z"/>
    <path d="M14686 5084 c-9 -32 -25 -584 -32 -1142 -3 -293 -3 -1271 1 -2173 l8 -1639 242 0 242 0 6 263 c4 144 8 408 8 587 1 179 4 413 8 520 l6 194 130 -123 c133 -126 221 -201 411 -353 60 -48 168 -141 239 -208 72 -67 168 -152 214 -189 267 -210 342 -274 501 -425 193 -183 246 -218 362 -242 85 -17 568 -32 568 -18 0 25 -86 131 -194 239 -163 162 -295 276 -886 769 -541 450 -708 596 -863 753 l-98 99 58 65 c123 136 235 233 798 691 607 492 894 741 1025 889 l60 67 -124 7 c-68 4 -204 5 -302 3 -155 -4 -187 -8 -236 -27 -71 -27 -159 -92 -258 -186 -71 -68 -1421 -1188 -1426 -1182 -1 1 -8 623 -14 1382 -7 759 -13 1381 -14 1381 -1 1 -98 5 -217 9 -207 7 -217 6 -223 -11z"/>
    <path d="M28937 4753 c-4 -190 -7 -506 -7 -702 0 -196 -3 -480 -7 -633 l-6 -276 -179 151 c-213 181 -320 256 -488 341 -697 356 -1428 221 -2048 -378 -336 -325 -524 -641 -602 -1011 -27 -128 -37 -366 -21 -495 53 -430 247 -816 569 -1136 538 -535 1293 -727 1956 -497 264 91 486 228 729 447 l107 97 0 -269 0 -269 152 -6 c83 -4 191 -7 240 -7 l88 0 0 2495 0 2495 -238 0 -239 0 -6 -347z m-1197 -1418 c595 -90 1078 -548 1211 -1148 30 -135 37 -392 14 -529 -34 -205 -119 -410 -242 -579 -69 -97 -232 -257 -333 -328 -427 -301 -1050 -349 -1509 -117 -89 45 -230 146 -312 224 -410 386 -577 1013 -408 1537 123 381 414 681 814 838 264 105 523 139 765 102z"/>
    <path d="M1907 4814 c-33 -314 -40 -525 -34 -1059 3 -286 13 -682 23 -880 24 -505 25 -1235 1 -1442 -45 -398 -129 -633 -277 -783 -196 -198 -463 -211 -858 -40 -122 52 -298 150 -430 238 -45 30 -84 53 -86 51 -22 -22 -246 -363 -244 -370 7 -20 170 -155 267 -220 537 -362 1184 -409 1614 -117 301 204 471 548 516 1048 62 669 68 2716 10 3555 -6 88 -12 162 -15 164 -2 2 -109 6 -237 9 l-234 5 -16 -159z"/>
    <path d="M4976 3810 c-322 -59 -651 -200 -906 -388 -100 -75 -258 -228 -335 -327 -310 -399 -435 -924 -344 -1455 93 -551 390 -1024 824 -1315 400 -268 886 -355 1404 -249 383 77 726 256 1004 522 l67 65 0 -276 0 -277 29 0 c39 0 388 29 429 36 l32 5 0 1774 0 1775 -97 0 c-54 0 -162 3 -240 7 l-143 6 -1 -164 c-1 -90 -4 -217 -8 -282 l-6 -118 -170 131 c-406 314 -661 453 -954 522 -131 30 -438 34 -585 8z m499 -480 c643 -92 1170 -609 1246 -1225 7 -52 9 -149 6 -230 -29 -712 -454 -1221 -1132 -1357 -156 -32 -425 -32 -571 0 -299 65 -551 201 -758 408 -435 435 -533 1056 -261 1641 93 198 198 329 365 452 214 159 449 267 662 306 88 16 345 19 443 5z"/>
    <path d="M23325 3819 c-260 -36 -538 -146 -824 -328 -116 -73 -279 -193 -374 -274 -32 -27 -61 -47 -64 -43 -4 4 -9 126 -11 271 l-5 265 -116 0 c-64 0 -173 -3 -243 -7 l-128 -6 0 -1780 0 -1779 218 6 c119 4 230 10 246 13 l29 5 -6 207 c-4 113 -12 345 -18 516 -19 510 -1 946 51 1250 90 525 293 885 602 1066 331 194 833 211 1124 38 125 -74 263 -235 330 -385 149 -332 198 -786 174 -1594 -6 -217 -15 -514 -20 -660 -5 -146 -10 -311 -10 -367 l0 -103 244 0 243 0 9 393 c15 651 10 1461 -9 1669 -64 690 -189 1032 -473 1297 -174 163 -361 266 -564 312 -101 23 -306 32 -405 18z"/>
    <path d="M9789 3810 c-299 -34 -551 -167 -884 -466 -134 -121 -183 -159 -193 -150 -4 4 -8 123 -10 263 l-4 256 -165 -6 c-92 -4 -201 -7 -245 -7 l-78 0 0 -1785 0 -1785 23 4 c12 3 92 7 177 11 85 3 186 8 224 12 l69 6 -7 261 c-31 1071 -22 1396 49 1781 75 404 202 675 408 871 148 141 306 216 529 250 124 19 349 14 448 -11 243 -60 412 -233 493 -505 86 -288 101 -591 91 -1826 l-7 -831 153 -6 c84 -4 194 -7 243 -7 l90 0 -9 378 c-13 537 -11 1200 4 1357 43 443 128 745 272 963 98 147 303 331 455 407 142 70 236 89 440 89 156 -1 178 -3 260 -28 123 -38 198 -79 282 -159 150 -142 237 -335 287 -637 40 -241 46 -628 21 -1230 -17 -411 -19 -681 -5 -854 11 -132 34 -283 45 -295 7 -6 464 -26 470 -19 2 2 -1 48 -7 103 -7 66 -12 439 -12 1090 -1 1031 -3 1082 -47 1389 -37 256 -110 491 -201 643 -50 84 -189 226 -284 289 -204 136 -428 192 -714 181 -243 -10 -436 -60 -665 -172 -280 -136 -493 -333 -605 -562 l-37 -74 -46 55 c-73 84 -114 152 -154 255 -62 157 -157 239 -409 357 -248 116 -522 169 -745 144z"/>
    <path d="M31960 3785 c-326 -47 -605 -149 -845 -309 -411 -275 -683 -684 -792 -1193 -26 -120 -27 -144 -28 -378 0 -223 3 -263 23 -365 93 -458 338 -852 697 -1119 354 -264 727 -390 1152 -391 930 -1 1769 659 1944 1528 30 152 37 416 15 572 -93 635 -497 1205 -1051 1483 -169 84 -403 155 -585 177 -113 13 -424 11 -530 -5z m398 -466 c627 -68 1098 -469 1227 -1047 64 -284 49 -585 -42 -846 -165 -475 -547 -801 -1058 -902 -126 -26 -424 -26 -550 -1 -146 29 -279 74 -403 137 -372 189 -623 516 -718 935 -21 94 -30 413 -15 531 44 333 181 609 406 822 293 278 728 418 1153 371z"/>
    <path d="M19164 3765 c-125 -27 -257 -93 -381 -188 -32 -24 -119 -101 -195 -171 -75 -69 -139 -126 -142 -126 -3 0 -6 76 -6 169 0 92 -3 189 -6 215 l-7 46 -77 0 c-42 0 -152 -3 -243 -7 l-167 -6 0 -1774 0 -1773 248 0 247 0 0 857 c0 616 4 896 13 993 41 441 92 677 188 875 83 173 187 281 339 354 137 66 191 76 428 76 143 0 207 3 207 11 0 6 30 69 66 140 62 120 104 221 104 249 0 14 -88 38 -215 61 -99 17 -319 17 -401 -1z"/>
    <path d="M20120 1925 l0 -1795 163 0 c90 0 198 3 240 6 l77 7 0 1782 0 1782 -82 6 c-46 4 -154 7 -240 7 l-158 0 0 -1795z"/>
  </g>
</svg>